<?xml version="1.0" standalone="no"?>
<!DOCTYPE svg PUBLIC "-//W3C//DTD SVG 20010904//EN"
 "http://www.w3.org/TR/2001/REC-SVG-20010904/DTD/svg10.dtd">
<svg version="1.0" xmlns="http://www.w3.org/2000/svg"
 width="1254.000000pt" height="1254.000000pt" viewBox="0 0 1254.000000 1254.000000"
 preserveAspectRatio="xMidYMid meet">

<g transform="translate(0.000000,1254.000000) scale(0.100000,-0.100000)"
fill="#000000" stroke="none">
<path d="M1885 12529 c-209 -21 -365 -57 -543 -125 -499 -192 -900 -560 -1132
-1039 -98 -202 -147 -355 -187 -580 -16 -94 -18 -350 -20 -4465 -2 -4688 -4
-4484 47 -4699 72 -301 197 -566 377 -801 84 -108 305 -329 403 -401 306 -228
658 -366 1040 -408 102 -11 8785 -9 8845 2 282 54 364 76 529 143 698 285
1189 930 1280 1681 12 101 14 756 12 4483 -1 4111 -3 4371 -19 4465 -84 474
-283 848 -628 1180 -336 322 -760 518 -1219 564 -117 11 -8670 12 -8785 0z
m4549 -2845 c9 -23 7 -87 -3 -103 -5 -8 -43 -17 -102 -23 -164 -16 -317 -60
-436 -125 -75 -41 -203 -176 -245 -258 -72 -141 -109 -308 -127 -580 -11 -170
-11 -4524 0 -4680 25 -349 87 -535 223 -671 116 -115 249 -176 468 -213 158
-27 314 -35 673 -34 378 1 482 8 653 44 222 48 385 124 567 265 297 231 561
654 741 1189 26 77 54 146 62 153 20 15 63 16 96 1 21 -10 25 -17 21 -43 -2
-17 -6 -58 -9 -91 -17 -194 -35 -381 -41 -420 -2 -16 -7 -57 -10 -90 -3 -33
-10 -94 -15 -135 -5 -41 -12 -106 -16 -145 -3 -38 -8 -77 -9 -85 -1 -8 -6 -44
-9 -80 -4 -36 -9 -81 -11 -100 -17 -134 -56 -478 -62 -540 l-8 -75 -2635 -3
c-2469 -2 -2636 -1 -2647 15 -7 9 -13 33 -13 53 0 59 13 67 125 74 191 11 299
37 435 103 79 38 109 59 175 127 129 129 184 259 221 521 18 124 19 243 19
2535 0 2234 -1 2414 -17 2526 -61 421 -231 636 -573 723 -88 22 -223 41 -298
41 -74 0 -87 11 -87 74 0 29 3 56 7 59 3 4 653 7 1444 7 1301 0 1437 -1 1443
-16z"/>
</g>
</svg>
